# xmcd
#
# Track frame offsets: 
#        150
#        11292
#        20664
#        35352
#        58717
#        72581
#        85972
#        97621
#        120732
#        138087
#        152780
#        166495
#        181744
#        193053
#        210058
#
# Disc length: 3018 seconds
#
# Revision: 0
# Processed by: cddbd v1.5.1PL2 Copyright (c) Steve Scherf et al.
# Submitted via: ExactAudioCopy v0.95b4
#
DISCID=b90bc80f
DTITLE=Various Artist - Аудио Караоке. Шлягеры 70-х. Давайте вспомним и споём
DTITLE=
DYEAR=2003
DGENRE=Instrumental
TTITLE0=Весёлые ребята - Алёшкина Любовь
TTITLE1=Голубые гитары - Ветер северный
TTITLE2=Самоцветы - Вся жизнь впереди
TTITLE3=Цветы - Звёздочка моя ясная
TTITLE4=Эдуард Хиль - Зима
TTITLE5=Синяя птица - Клён
TTITLE6=Муслим Магомаев - Королева красоты
TTITLE7=Дмитрий Маликов, Анжелика Варум - Листья жёлтые
TTITLE8=Анна Герман - Надежда
TTITLE9=Иосиф Кобзон - Ноктюрн
TTITLE10=Людмила Гурченко - Песенка о хорошем настроении
TTITLE11=Самоцветы - Там, за облаками
TTITLE12=Самоцветы - Увезу тебя я в тундру
TTITLE13=Цветы - Честно говоря
TTITLE14=Филипп Киркоров - Я встретил девушку
EXTD=
EXTT0=
EXTT1=
EXTT2=
EXTT3=
EXTT4=
EXTT5=
EXTT6=
EXTT7=
EXTT8=
EXTT9=
EXTT10=
EXTT11=
EXTT12=
EXTT13=
EXTT14=
PLAYORDER=
